<?xml version="1.0" standalone="no"?>
<!DOCTYPE svg PUBLIC "-//W3C//DTD SVG 20010904//EN"
 "http://www.w3.org/TR/2001/REC-SVG-20010904/DTD/svg10.dtd">
<svg version="1.0" xmlns="http://www.w3.org/2000/svg"
 width="564.000000pt" height="564.000000pt" viewBox="0 0 564.000000 564.000000"
 preserveAspectRatio="xMidYMid meet">
<metadata>
Created by potrace 1.16, written by Peter Selinger 2001-2019
</metadata>
<g transform="translate(0.000000,564.000000) scale(0.100000,-0.100000)"
fill="#000000" stroke="none">
<path d="M2600 5234 c-322 -39 -548 -103 -794 -225 -172 -86 -201 -103 -351
-203 -464 -307 -814 -811 -960 -1380 -58 -225 -70 -331 -70 -606 0 -275 12
-381 70 -606 217 -846 878 -1516 1709 -1735 233 -61 338 -73 611 -74 273 0
366 10 585 65 888 222 1578 940 1768 1840 39 186 47 270 47 515 0 270 -13 378
-70 601 -217 846 -879 1518 -1709 1735 -216 56 -332 71 -576 74 -124 2 -241 1
-260 -1z m665 -139 c83 -21 152 -57 216 -110 30 -25 83 -68 118 -95 191 -148
286 -364 476 -1080 32 -118 60 -223 62 -232 4 -13 0 -18 -13 -18 -13 0 -36 28
-71 88 -77 129 -137 265 -199 451 -64 193 -105 304 -110 298 -2 -2 14 -64 35
-138 61 -209 93 -339 87 -355 -21 -53 -116 61 -156 187 -17 57 -52 213 -64
294 -2 17 -4 -51 -3 -149 2 -128 -1 -180 -10 -183 -6 -2 -28 10 -48 28 -90 79
-104 186 -56 422 28 140 29 150 15 202 -19 73 -43 120 -92 175 -156 176 -451
185 -583 17 -54 -67 -72 -137 -67 -251 3 -82 7 -98 39 -156 50 -92 99 -125
186 -125 64 0 65 1 108 46 50 54 78 130 69 190 -7 42 -51 94 -88 103 -23 6
-76 -7 -76 -19 0 -3 14 -18 32 -34 27 -24 31 -34 30 -71 -5 -109 -110 -149
-154 -60 -21 42 -23 128 -4 173 18 44 76 93 120 101 80 15 180 -44 206 -123
19 -60 9 -165 -24 -229 -97 -191 -274 -229 -406 -86 -50 55 -96 149 -113 234
l-13 62 -16 -75 c-36 -165 -144 -312 -262 -356 -56 -21 -67 -21 -324 -14 -476
14 -582 10 -697 -21 -121 -33 -259 -97 -359 -166 -86 -59 -227 -201 -282 -284
-38 -58 -62 -68 -55 -25 4 33 75 172 124 244 84 123 249 262 384 322 80 35
187 62 308 78 59 8 110 17 114 21 12 14 -216 -6 -290 -25 -41 -11 -118 -36
-170 -56 -159 -62 -172 -57 -94 31 58 67 127 110 223 141 70 23 89 25 207 20
72 -2 143 -10 159 -16 44 -18 44 -5 0 15 -82 35 -162 55 -247 61 -48 3 -90 10
-93 15 -10 15 33 53 94 84 70 36 184 45 243 20 55 -23 142 -99 218 -190 58
-70 82 -89 148 -124 179 -93 340 -88 452 13 143 130 176 404 63 536 -112 131
-325 112 -393 -36 -10 -22 -19 -51 -19 -65 -1 -121 110 -217 199 -172 38 19
52 42 26 42 -57 0 -113 73 -100 130 15 67 106 99 156 55 75 -67 76 -194 2
-276 -95 -105 -263 -56 -345 101 -32 62 -32 177 -1 235 31 58 80 105 143 134
47 22 69 26 145 26 78 0 98 -4 147 -28 94 -46 168 -149 184 -257 l7 -44 13 52
c28 110 83 190 164 242 104 67 247 88 375 55z m491 -161 c265 -107 470 -311
563 -559 26 -68 61 -237 61 -293 0 -20 5 -44 10 -52 13 -20 13 95 0 176 -13
83 -62 246 -94 317 -44 98 -28 114 48 46 153 -137 204 -359 140 -614 -10 -40
29 39 53 109 16 46 27 102 31 159 2 48 9 90 14 93 13 8 63 -50 89 -104 33 -67
38 -174 11 -236 -29 -65 -65 -109 -151 -183 -42 -36 -87 -75 -101 -87 -37 -34
-98 -166 -116 -250 -26 -127 8 -240 94 -317 84 -73 183 -109 303 -109 166 0
278 89 295 233 23 193 -181 319 -319 197 -19 -16 -39 -47 -46 -70 -10 -36 -10
-46 6 -77 19 -40 43 -55 43 -28 0 56 74 114 129 100 35 -9 69 -42 76 -75 19
-88 -99 -161 -213 -130 -24 6 -60 27 -81 46 -104 93 -57 264 93 342 68 35 180
37 242 5 57 -30 102 -79 133 -143 35 -74 37 -209 4 -282 -46 -99 -151 -178
-262 -194 l-45 -7 54 -14 c81 -20 138 -52 193 -107 86 -85 124 -199 114 -341
-7 -105 -38 -191 -96 -266 -25 -34 -68 -91 -95 -127 -125 -169 -270 -255 -631
-372 -85 -27 -214 -65 -287 -85 -247 -65 -403 -107 -420 -112 -13 -4 -18 0
-18 13 0 13 28 36 89 72 128 77 281 142 509 218 111 36 209 72 219 80 21 16
-5 10 -157 -36 -115 -35 -293 -80 -314 -80 -25 0 -19 34 12 62 49 45 92 70
161 93 58 20 214 55 306 69 17 2 -51 4 -149 3 -128 -2 -180 1 -183 10 -6 17
56 82 101 105 66 34 158 35 326 2 80 -15 159 -28 176 -27 132 5 280 120 335
260 18 45 23 79 23 153 1 83 -3 102 -26 152 -36 77 -102 139 -177 168 -50 18
-75 21 -154 18 -84 -3 -101 -7 -162 -38 -157 -80 -182 -227 -55 -319 22 -16
63 -35 91 -41 106 -26 195 48 165 138 -9 27 -23 29 -30 4 -14 -43 -103 -59
-152 -27 -90 59 -32 155 94 155 127 0 216 -102 183 -211 -38 -128 -193 -179
-336 -110 -293 140 -227 433 118 520 l70 18 -72 17 c-150 33 -276 119 -336
228 l-30 53 5 295 c8 529 6 585 -19 685 -63 255 -230 503 -438 648 -72 50 -79
57 -66 70 8 9 4 10 49 -9z m-1656 -831 c0 -23 -146 -110 -290 -174 -58 -26
-187 -74 -285 -107 -189 -63 -268 -92 -262 -98 3 -4 53 10 187 49 112 34 285
77 304 77 30 0 16 -38 -26 -75 -77 -65 -163 -96 -375 -135 l-108 -20 179 3
c115 1 181 -2 183 -8 6 -17 -57 -84 -100 -108 -61 -32 -209 -30 -374 6 -116
24 -126 25 -178 12 -31 -8 -74 -24 -97 -36 -66 -33 -145 -120 -180 -196 -29
-61 -32 -78 -32 -169 -1 -96 1 -104 34 -170 64 -125 164 -178 323 -172 80 3
101 7 159 36 82 40 128 94 136 157 6 59 -2 88 -40 130 -37 43 -70 61 -138 76
-45 10 -55 8 -96 -12 -63 -30 -91 -92 -60 -134 13 -17 15 -17 42 14 24 26 37
32 71 33 108 1 153 -109 63 -154 -42 -21 -128 -23 -173 -4 -44 18 -93 76 -101
120 -15 80 44 180 123 206 60 19 165 9 229 -24 279 -142 207 -430 -131 -515
l-70 -18 72 -16 c163 -37 306 -143 349 -259 20 -53 21 -72 18 -275 -2 -120 -7
-290 -11 -378 -6 -110 -4 -187 4 -245 24 -172 90 -337 193 -487 58 -84 198
-222 281 -277 56 -37 66 -49 48 -60 -13 -8 -121 39 -200 86 -266 159 -426 406
-462 708 -17 144 -32 162 -25 30 6 -120 28 -215 81 -351 20 -52 39 -104 42
-116 10 -42 -26 -26 -91 40 -68 68 -116 155 -135 245 -15 73 -14 225 3 297 8
33 13 61 11 63 -6 7 -46 -92 -66 -163 -10 -38 -19 -100 -19 -137 0 -82 -13
-94 -52 -47 -82 97 -102 220 -54 324 24 54 71 105 217 240 75 69 122 156 146
270 49 237 -127 425 -399 425 -120 0 -224 -55 -271 -144 -30 -57 -30 -165 0
-221 53 -101 154 -139 249 -96 83 38 122 132 81 194 -19 30 -37 35 -37 12 0
-57 -73 -113 -130 -100 -67 15 -99 106 -55 156 67 75 194 76 275 3 132 -120 7
-353 -199 -371 -112 -10 -212 52 -268 164 -24 51 -28 69 -28 148 0 78 4 97 28
147 46 94 155 172 259 186 l41 5 -51 13 c-104 27 -191 85 -241 161 -113 170
-88 428 57 594 21 24 52 65 70 90 125 185 349 298 877 443 72 19 202 55 290
80 188 51 185 51 185 29z m1045 -304 c165 -95 383 -219 485 -276 102 -58 190
-110 197 -116 9 -9 13 -149 14 -587 l1 -575 -454 -266 c-249 -147 -468 -276
-486 -288 -56 -36 15 -70 -715 344 -185 105 -338 196 -341 203 -6 13 -10 1152
-4 1157 2 3 350 207 581 341 31 19 83 49 115 68 206 120 287 166 297 166 6 0
146 -77 310 -171z m-1529 -1790 c76 -117 148 -281 227 -518 41 -122 80 -228
86 -234 12 -12 8 5 -49 198 -50 172 -73 272 -65 284 12 20 34 11 69 -30 63
-74 101 -179 137 -374 l19 -100 -3 174 c-1 111 2 176 8 178 17 6 84 -57 108
-100 32 -60 29 -208 -6 -375 -24 -117 -25 -127 -11 -180 29 -112 109 -213 205
-261 202 -101 422 -43 509 134 22 44 25 63 25 161 0 107 -1 113 -35 180 -43
84 -95 125 -168 132 -58 5 -95 -11 -140 -63 -79 -90 -73 -229 12 -269 35 -16
80 -14 92 5 3 5 -8 21 -25 35 -27 22 -31 32 -31 76 0 41 5 54 29 79 68 68 141
11 141 -111 0 -65 -18 -108 -62 -146 -84 -74 -213 -41 -268 67 -31 60 -27 158
8 234 98 206 278 247 416 95 52 -58 81 -118 106 -213 l17 -70 16 70 c34 149
122 279 229 338 l53 30 285 -5 c545 -8 603 -6 713 23 118 31 260 97 361 167
86 59 227 201 281 284 38 57 49 65 60 45 12 -18 -118 -268 -155 -299 -3 -3
-23 -26 -44 -52 -21 -26 -68 -71 -104 -101 -151 -122 -301 -185 -506 -211 -65
-8 -121 -17 -124 -20 -3 -3 26 -6 65 -6 129 0 311 42 445 104 108 50 118 24
26 -68 -104 -103 -216 -146 -383 -146 -88 0 -129 5 -210 26 -40 10 39 -29 109
-53 46 -16 102 -27 159 -31 48 -2 90 -9 93 -14 10 -16 -38 -58 -104 -89 -84
-41 -166 -42 -246 -6 -57 27 -146 108 -237 217 -75 90 -223 153 -359 153 -61
0 -85 -5 -132 -27 -126 -60 -208 -207 -208 -372 0 -207 143 -337 322 -294 74
18 143 88 153 155 14 88 -29 168 -104 198 -29 12 -48 14 -71 7 -51 -15 -82
-50 -45 -50 33 0 77 -32 92 -67 17 -41 11 -78 -19 -110 -43 -47 -108 -38 -152
20 -75 98 -18 266 100 296 113 29 243 -61 279 -191 38 -141 -20 -262 -155
-327 -47 -22 -69 -26 -145 -26 -78 0 -97 4 -147 28 -79 39 -139 108 -166 191
-12 37 -22 76 -23 89 0 12 -7 -3 -15 -33 -53 -198 -203 -310 -417 -310 -124 0
-247 47 -345 133 -20 18 -56 45 -79 61 -63 42 -151 137 -200 213 -77 121 -177
404 -277 780 -31 114 -65 239 -76 278 -24 84 -24 85 -5 85 9 0 36 -32 61 -71z"/>
<path d="M2638 3758 c-441 -255 -558 -324 -558 -331 0 -5 26 -6 58 -3 31 3
185 13 342 21 157 9 291 18 298 20 16 6 13 356 -3 362 -6 2 -67 -29 -137 -69z"/>
<path d="M2880 3651 c0 -179 0 -181 23 -185 31 -7 681 -35 686 -30 2 2 2 6 0
8 -18 17 -661 376 -682 381 l-27 7 0 -181z"/>
<path d="M2340 3349 c-283 -16 -390 -26 -390 -33 0 -4 22 -57 123 -306 195
-480 194 -477 211 -459 8 8 87 142 176 299 89 157 179 314 200 350 49 85 80
147 80 160 0 12 -18 12 -400 -11z"/>
<path d="M2937 3364 c-3 -4 1 -21 10 -38 28 -55 426 -730 444 -754 l18 -23 14
23 c17 26 282 689 292 730 5 19 3 29 -6 33 -12 4 -662 35 -736 35 -17 0 -32
-3 -36 -6z"/>
<path d="M2598 2913 c-124 -219 -229 -408 -233 -420 -6 -21 -3 -23 27 -24 77
-4 924 4 931 8 10 6 -5 33 -242 438 -214 367 -232 395 -246 395 -6 0 -112
-179 -237 -397z"/>
<path d="M3633 2838 c-148 -373 -149 -376 -137 -388 14 -14 225 -100 247 -100
16 0 17 23 16 348 0 191 -3 364 -7 385 -7 36 -13 22 -119 -245z"/>
<path d="M1928 3105 c-8 -8 3 -758 11 -767 5 -6 74 22 249 99 6 3 12 9 12 14
0 8 -53 141 -183 459 -81 197 -83 201 -89 195z"/>
<path d="M2470 2373 c-36 -2 -71 -6 -78 -8 -17 -6 1 -32 128 -186 52 -63 144
-175 204 -247 59 -73 114 -132 120 -132 17 0 31 15 255 295 111 138 200 257
198 265 -2 13 -53 15 -382 16 -209 0 -409 -1 -445 -3z"/>
<path d="M2140 2315 c-116 -50 -139 -66 -118 -82 10 -9 305 -178 478 -276 19
-10 54 -30 77 -44 24 -14 47 -23 52 -21 9 3 -351 448 -373 460 -6 4 -59 -13
-116 -37z"/>
<path d="M3255 2148 c-194 -242 -199 -248 -192 -254 6 -7 550 311 602 352 l20
15 -20 12 c-37 22 -200 86 -220 86 -15 1 -68 -58 -190 -211z"/>
</g>
</svg>
